<svg width="1103" height="1426" viewBox="0 0 1103 1426" fill="none" xmlns="http://www.w3.org/2000/svg">
<g clip-path="url(#clip0_11_23)">
<path d="M547.694 97.7903C558.278 97.2723 575.689 98.0911 586.283 98.8563C661.885 104.625 734.686 129.976 797.516 172.416C889.489 234.796 950.14 338.6 970.8 446.775C988.536 543.679 974.832 643.716 931.687 732.28C916.75 763.488 892.246 803.211 874.002 833.152C839.359 889.419 803.296 944.795 765.847 999.23C722.347 1063.71 677.325 1127.15 630.812 1189.49C622.281 1200.83 613.693 1212.11 605.046 1223.36C590.209 1242.61 582.033 1256.13 556.711 1260.99C527.088 1261.94 514.838 1242.74 498.532 1221.75C488.331 1208.61 478.21 1195.41 468.167 1182.15C408.701 1104.23 350.104 1017.88 295.759 936.523C266.601 893.402 238.619 849.494 211.841 804.854C194.99 776.648 179.209 750.641 165.916 720.457C142.369 666.977 126.986 609.804 124.654 551.276C118.872 434.837 159.826 320.909 238.421 234.797C320.341 146.34 428.506 102.271 547.694 97.7903Z" fill="#01403A"/>
<path d="M542.778 150.699C555.111 150.089 572.124 150.954 584.399 151.987C682.021 160.317 772.434 206.764 836.052 281.269C901.159 359.979 932.78 461.093 924.111 562.869C916.757 647.066 885.29 721.947 833.803 788.526C789.808 845.434 738.864 887.685 668.666 907.849C646.745 914.151 649.109 910.844 631.735 897.684C610.584 881.669 586.123 874.247 560.026 871.921C538.913 870.758 513.21 874.908 494.049 884.197C485.36 888.486 477.089 893.569 469.343 899.39C451.144 913.155 454.734 913.852 431.733 906.568C389.196 892.886 348.257 869.045 315.473 838.638C234.183 763.251 182.115 658.387 177.057 547.11C173.083 444.844 209.501 345.119 278.446 269.478C347.778 193.781 441.177 155.134 542.778 150.699Z" fill="#ADD9B8"/>
<path d="M489.239 440.711C489.79 440.677 490.325 440.935 490.919 441.122C505.047 467.134 580.74 467.739 606.963 460.42C616.508 457.756 622.655 454.322 627.81 445.879C662.903 460.985 694.516 481.393 721.434 508.666C788.283 576.401 824.047 689.347 823.323 783.075C776.933 843.304 728.112 881.07 653.321 899.752C642.405 889.391 630.015 880.701 616.554 873.968C597.403 864.137 576.249 858.838 554.725 858.483C515.987 857.738 478.562 872.52 450.786 899.529C379.829 883.988 324.345 838.116 279.793 782.97C279.425 720.45 292.983 658.634 319.481 602.007C354.249 526.457 410.567 469.797 489.239 440.711Z" fill="#01403A"/>
<path d="M537.46 464.352L539.139 465.654C541.228 469.433 538.786 474.504 537.116 478.294C506.693 545.555 482.677 615.533 465.386 687.301C463.442 685.423 462.675 677.154 462.612 674.381C461.205 611.964 486.321 549.639 515.302 495.49C520.314 486.125 529.196 470.441 537.46 464.352Z" fill="#A9E232"/>
<path d="M488.089 481.935L488.509 482.345C484.324 487.905 478.703 493.746 474.062 499.176C463.963 510.926 454.072 522.855 444.394 534.953C402.403 587.868 380.185 632.249 358.286 695.155C358.028 694.917 357.534 694.542 357.515 694.164C353.639 614.112 424.457 517.311 488.089 481.935Z" fill="#B5F230"/>
<path d="M571.955 465.968C575.535 466.108 576.644 466.735 578.609 469.822C585.807 481.128 591.776 494.092 597.141 506.385C620.115 559.023 647.043 634.963 636.968 692.884L636.715 692.935L635.882 692.132C620.653 620.016 597.783 552.13 574.189 482.516C572.47 477.441 570.89 471.219 571.955 465.968Z" fill="#A9E232"/>
<path d="M623.93 484.311C636.405 489.107 663.269 516.158 672.475 525.863C714.095 569.741 750.27 634.738 747.519 697.306C745.43 695.551 729.763 651.279 727.068 644.881C721.776 632.455 715.912 620.278 709.506 608.389C693.946 579.99 676.22 552.832 656.486 527.156C646.4 513.832 632.782 498.001 623.93 484.311Z" fill="#B5F230"/>
<path d="M523.965 404.236C520.103 403.023 505.827 399.401 503.921 397.555C479.176 373.595 455.146 348.225 432.512 322.238C428.053 317.119 423.801 310.775 420.556 304.992C403.427 274.455 434.83 237.713 467.247 248.27C492.707 255.797 508.06 301.547 537.394 290.716C559.888 279.231 563.173 235.65 598.795 232.643C605.513 232.015 612.287 232.866 618.642 235.134C635.208 241.178 643.682 256.812 645.357 273.784C645.968 279.983 643.711 303.354 650.927 305.663C661.173 308.162 674.714 304.233 685.011 302.479C718.698 296.743 744.901 335.793 715.78 359.144C693.77 376.796 657.462 388.86 632.481 402.704C627.73 405.337 619.151 409.214 614.163 411.108C610.702 409.843 609.511 409.255 605.812 409.075C599.309 409.945 592.798 410.746 586.279 411.478L579.348 411.487L568.471 411.475C561.54 410.896 554.627 410.132 547.736 409.185C540.053 407.883 531.644 405.903 523.965 404.236Z" fill="#B5F230"/>
<path d="M523.965 404.236C523.701 400.843 523.336 397.77 522.183 394.438C517.122 379.813 511.068 367.075 504.425 352.991C503.152 350.292 494.241 332.687 493.672 327.782C494.037 327.346 494.402 326.911 494.768 326.475C499.461 324.356 505.395 324.788 510.394 325.322C522.796 348.055 543.926 383.79 547.736 409.185C540.053 407.883 531.644 405.903 523.965 404.236Z" fill="#01403A"/>
<path d="M625.655 356.891C630.947 357.881 636.977 359.909 642.195 361.503C630.339 377.226 614.592 390.546 605.812 409.075C599.309 409.945 592.798 410.746 586.279 411.478C595.344 393.371 609.699 369.564 625.655 356.891Z" fill="#01403A"/>
<path d="M568.471 411.475C569.486 407.209 571.265 397.942 572.957 394.247C580.644 377.465 587.633 360.396 594.493 343.287C592.789 356.213 589.705 370.282 584.481 382.236C578.79 395.26 585.451 398.76 579.348 411.487L568.471 411.475Z" fill="#01403A"/>
<path d="M497.098 408.347C501.822 409.406 511.67 414.515 517.751 416.151C550.989 425.089 585.544 430.27 618.516 417.7C626.307 425.855 629.145 435.599 618.964 443.463C587.581 459.157 527.047 452.633 496.957 435.887C486.179 429.887 491.072 416.08 497.098 408.347Z" fill="#B5F230"/>
<path d="M545.901 955.497C580.192 952.489 610.428 977.854 613.426 1012.14C616.424 1046.43 591.047 1076.66 556.754 1079.64C522.478 1082.63 492.27 1057.27 489.274 1022.99C486.277 988.723 511.627 958.505 545.901 955.497Z" fill="#ADD9B8"/>
<path d="M688.282 1165.19C720.933 1168.22 753.299 1173.77 785.094 1181.78C810.844 1188.42 841.351 1198.42 863.125 1214.4C871.384 1220.46 878.487 1229.74 879.851 1240.06C880.854 1247.66 877.707 1257 872.658 1262.43C831.95 1306.2 721.866 1320.8 665.181 1326.73C622.285 1331.26 579.152 1333.18 536.023 1332.47C460.931 1331.33 296.105 1317.85 238.696 1270.72C230.953 1264.36 223.45 1255.7 222.521 1245.3C221.807 1237.31 225.287 1229.58 230.306 1223.53C260.87 1186.69 366.395 1170.05 414.018 1165.94C416.015 1166.46 429.034 1183.48 431.346 1186.31C391.598 1188.36 323.935 1201.07 289.411 1222.61C284.956 1225.39 279.499 1231.07 278.768 1236.41C278.181 1240.71 279.702 1246.28 282.69 1249.24C310.679 1276.95 396.038 1287.42 432.994 1291.41C535.865 1302.53 643.815 1299.99 745.27 1279.97C769.029 1274.75 794.592 1269.2 814.465 1254.47C822.585 1248.45 828.845 1235.34 820.029 1228.17C784.335 1199.13 716.4 1189.51 672.173 1186.3C677.36 1179.27 682.962 1172.15 688.282 1165.19Z" fill="#ADD9B8"/>
</g>
<defs>
<clipPath id="clip0_11_23">
<rect width="1103" height="1426" fill="white"/>
</clipPath>
</defs>
</svg>
